<svg width="160" height="40" viewBox="0 0 160 40" fill="none" xmlns="http://www.w3.org/2000/svg">
<path d="M5.2017 29V10.8182H7.40341V27.0469H15.8551V29H5.2017ZM33.8971 19.9091C33.8971 21.8267 33.5509 23.4839 32.8584 24.8807C32.1659 26.2775 31.216 27.3546 30.0086 28.1122C28.8012 28.8698 27.4222 29.2486 25.8715 29.2486C24.3209 29.2486 22.9419 28.8698 21.7345 28.1122C20.5271 27.3546 19.5771 26.2775 18.8847 24.8807C18.1922 23.4839 17.846 21.8267 17.846 19.9091C17.846 17.9915 18.1922 16.3343 18.8847 14.9375C19.5771 13.5407 20.5271 12.4635 21.7345 11.706C22.9419 10.9484 24.3209 10.5696 25.8715 10.5696C27.4222 10.5696 28.8012 10.9484 30.0086 11.706C31.216 12.4635 32.1659 13.5407 32.8584 14.9375C33.5509 16.3343 33.8971 17.9915 33.8971 19.9091ZM31.7664 19.9091C31.7664 18.3348 31.503 17.006 30.9763 15.9229C30.4555 14.8398 29.7482 14.0201 28.8545 13.4638C27.9667 12.9074 26.9724 12.6293 25.8715 12.6293C24.7707 12.6293 23.7734 12.9074 22.8797 13.4638C21.9919 14.0201 21.2847 14.8398 20.7579 15.9229C20.2371 17.006 19.9767 18.3348 19.9767 19.9091C19.9767 21.4834 20.2371 22.8121 20.7579 23.8952C21.2847 24.9783 21.9919 25.7981 22.8797 26.3544C23.7734 26.9107 24.7707 27.1889 25.8715 27.1889C26.9724 27.1889 27.9667 26.9107 28.8545 26.3544C29.7482 25.7981 30.4555 24.9783 30.9763 23.8952C31.503 22.8121 31.7664 21.4834 31.7664 19.9091ZM50.0281 16.5C49.8328 15.9022 49.5754 15.3666 49.2558 14.8931C48.9421 14.4137 48.5663 14.0053 48.1283 13.668C47.6962 13.3306 47.205 13.0732 46.6546 12.8956C46.1041 12.718 45.5004 12.6293 44.8435 12.6293C43.7663 12.6293 42.7868 12.9074 41.9049 13.4638C41.0231 14.0201 40.3217 14.8398 39.8009 15.9229C39.28 17.006 39.0196 18.3348 39.0196 19.9091C39.0196 21.4834 39.283 22.8121 39.8097 23.8952C40.3365 24.9783 41.0497 25.7981 41.9493 26.3544C42.8489 26.9107 43.861 27.1889 44.9855 27.1889C46.0272 27.1889 46.9446 26.967 47.7377 26.5231C48.5367 26.0733 49.1581 25.44 49.602 24.6232C50.0518 23.8005 50.2767 22.8329 50.2767 21.7202L50.9514 21.8622H45.4827V19.9091H52.4074V21.8622C52.4074 23.3596 52.0878 24.6617 51.4486 25.7685C50.8153 26.8752 49.9394 27.7334 48.8208 28.343C47.7081 28.9467 46.4297 29.2486 44.9855 29.2486C43.3757 29.2486 41.9611 28.8698 40.7419 28.1122C39.5286 27.3546 38.5816 26.2775 37.901 24.8807C37.2263 23.4839 36.8889 21.8267 36.8889 19.9091C36.8889 18.4709 37.0813 17.1777 37.466 16.0295C37.8566 14.8754 38.407 13.8929 39.1173 13.082C39.8275 12.2712 40.6679 11.6497 41.6386 11.2177C42.6092 10.7856 43.6775 10.5696 44.8435 10.5696C45.8023 10.5696 46.696 10.7146 47.5246 11.0046C48.3591 11.2887 49.1019 11.6941 49.7529 12.2209C50.4099 12.7417 50.9574 13.3661 51.3953 14.0941C51.8333 14.8162 52.1352 15.6181 52.3009 16.5H50.0281ZM71.5192 19.9091C71.5192 21.8267 71.1729 23.4839 70.4805 24.8807C69.788 26.2775 68.8381 27.3546 67.6307 28.1122C66.4233 28.8698 65.0443 29.2486 63.4936 29.2486C61.9429 29.2486 60.5639 28.8698 59.3565 28.1122C58.1491 27.3546 57.1992 26.2775 56.5067 24.8807C55.8143 23.4839 55.468 21.8267 55.468 19.9091C55.468 17.9915 55.8143 16.3343 56.5067 14.9375C57.1992 13.5407 58.1491 12.4635 59.3565 11.706C60.5639 10.9484 61.9429 10.5696 63.4936 10.5696C65.0443 10.5696 66.4233 10.9484 67.6307 11.706C68.8381 12.4635 69.788 13.5407 70.4805 14.9375C71.1729 16.3343 71.5192 17.9915 71.5192 19.9091ZM69.3885 19.9091C69.3885 18.3348 69.1251 17.006 68.5984 15.9229C68.0775 14.8398 67.3703 14.0201 66.4766 13.4638C65.5888 12.9074 64.5945 12.6293 63.4936 12.6293C62.3928 12.6293 61.3955 12.9074 60.5018 13.4638C59.614 14.0201 58.9067 14.8398 58.38 15.9229C57.8591 17.006 57.5987 18.3348 57.5987 19.9091C57.5987 21.4834 57.8591 22.8121 58.38 23.8952C58.9067 24.9783 59.614 25.7981 60.5018 26.3544C61.3955 26.9107 62.3928 27.1889 63.4936 27.1889C64.5945 27.1889 65.5888 26.9107 66.4766 26.3544C67.3703 25.7981 68.0775 24.9783 68.5984 23.8952C69.1251 22.8121 69.3885 21.4834 69.3885 19.9091ZM73.4701 12.7713V10.8182H87.1064V12.7713H81.3891V29H79.1874V12.7713H73.4701ZM88.9419 10.8182H91.4632L96.5059 19.3054H96.7189L101.762 10.8182H104.283L97.7132 21.5071V29H95.5115V21.5071L88.9419 10.8182ZM107.13 29V10.8182H113.274C114.7 10.8182 115.866 11.0756 116.772 11.5906C117.683 12.0996 118.358 12.7891 118.796 13.6591C119.234 14.5291 119.453 15.4998 119.453 16.571C119.453 17.6423 119.234 18.6159 118.796 19.4918C118.364 20.3678 117.695 21.0662 116.79 21.587C115.884 22.1019 114.724 22.3594 113.309 22.3594H108.906V20.4062H113.238C114.215 20.4062 114.999 20.2376 115.591 19.9002C116.183 19.5629 116.612 19.1071 116.878 18.533C117.151 17.953 117.287 17.299 117.287 16.571C117.287 15.843 117.151 15.192 116.878 14.6179C116.612 14.0438 116.18 13.594 115.582 13.2685C114.984 12.937 114.191 12.7713 113.203 12.7713H109.332V29H107.13ZM123 29V10.8182H133.973V12.7713H125.201V18.9148H133.404V20.8679H125.201V27.0469H134.115V29H123Z" fill="white"/>
</svg>
